<?xml version="1.0" encoding="utf-8"?>
<!-- Generator: Adobe Illustrator 21.0.2, SVG Export Plug-In . SVG Version: 6.00 Build 0)  -->
<svg version="1.1" id="Layer_1" xmlns="http://www.w3.org/2000/svg" xmlns:xlink="http://www.w3.org/1999/xlink" x="0px" y="0px"
	 viewBox="0 0 85.7 83.8" style="enable-background:new 0 0 85.7 83.8;" xml:space="preserve">
<style type="text/css">
	.st0{fill:none;stroke:#00A6FF;stroke-width:2;stroke-linecap:round;stroke-linejoin:round;stroke-miterlimit:10;}
	.st1{clip-path:url(#SVGID_2_);fill:none;stroke:#00A6FF;stroke-linecap:round;stroke-linejoin:round;stroke-miterlimit:10;}
	.st2{fill:none;stroke:#00A6FF;stroke-linecap:round;stroke-linejoin:round;stroke-miterlimit:10;}
	.st3{clip-path:url(#SVGID_4_);fill:none;stroke:#00A6FF;stroke-linecap:round;stroke-linejoin:round;stroke-miterlimit:10;}
	.st4{clip-path:url(#SVGID_4_);}
</style>
<rect x="2.3" y="28.2" class="st0" width="17" height="54.7"/>
<path class="st0" d="M10.8,1c5.4,0,9.8,4.4,9.8,9.9c0,5.4-4.4,9.8-9.8,9.8c-5.4,0-9.8-4.4-9.8-9.8C1,5.4,5.4,1,10.8,1"/>
<path class="st0" d="M30,28.2h16.3v7.5h0.2c2.3-4.3,7.8-8.8,16.1-8.8c17.2,0,20.4,11.3,20.4,26v30H66V56.3c0-6.3-0.1-14.5-8.8-14.5
	c-8.8,0-10.2,6.9-10.2,14v27H30V28.2z"/>
<g>
	<defs>
		<path id="SVGID_1_" d="M10.8,1c5.4,0,9.8,4.4,9.8,9.9c0,5.4-4.4,9.8-9.8,9.8c-5.4,0-9.8-4.4-9.8-9.8C1,5.4,5.4,1,10.8,1"/>
	</defs>
	<clipPath id="SVGID_2_">
		<use xlink:href="#SVGID_1_"  style="overflow:visible;"/>
	</clipPath>
	<line class="st1" x1="12.7" y1="1.9" x2="17.2" y2="1.9"/>
	<line class="st1" x1="14" y1="3.9" x2="18.5" y2="3.9"/>
	<line class="st1" x1="15.3" y1="5.8" x2="19.8" y2="5.8"/>
	<line class="st1" x1="16.6" y1="7.7" x2="21.1" y2="7.7"/>
	<line class="st1" x1="17.2" y1="11.6" x2="21.7" y2="11.6"/>
	<line class="st1" x1="16.5" y1="13.6" x2="21" y2="13.6"/>
	<line class="st1" x1="15.3" y1="15.6" x2="19.8" y2="15.6"/>
	<line class="st1" x1="13.3" y1="17.5" x2="19.8" y2="17.5"/>
	<line class="st1" x1="11.4" y1="19.5" x2="17.9" y2="19.5"/>
	<line class="st1" x1="17.5" y1="9.7" x2="22" y2="9.7"/>
</g>
<g>
	<line class="st2" x1="13.6" y1="30.4" x2="19.3" y2="30.4"/>
	<line class="st2" x1="13.6" y1="32.6" x2="19.3" y2="32.6"/>
	<line class="st2" x1="13.6" y1="34.7" x2="19.3" y2="34.7"/>
	<line class="st2" x1="13.6" y1="36.9" x2="19.3" y2="36.9"/>
	<line class="st2" x1="13.6" y1="39.1" x2="19.3" y2="39.1"/>
	<line class="st2" x1="13.6" y1="41.3" x2="19.3" y2="41.3"/>
	<line class="st2" x1="13.6" y1="43.5" x2="19.3" y2="43.5"/>
	<line class="st2" x1="13.6" y1="45.7" x2="19.3" y2="45.7"/>
</g>
<g>
	<line class="st2" x1="13.6" y1="47.9" x2="19.3" y2="47.9"/>
	<line class="st2" x1="13.6" y1="50.1" x2="19.3" y2="50.1"/>
	<line class="st2" x1="13.6" y1="52.2" x2="19.3" y2="52.2"/>
	<line class="st2" x1="13.6" y1="54.4" x2="19.3" y2="54.4"/>
	<line class="st2" x1="13.6" y1="56.6" x2="19.3" y2="56.6"/>
	<line class="st2" x1="13.6" y1="58.8" x2="19.3" y2="58.8"/>
	<line class="st2" x1="13.6" y1="61" x2="19.3" y2="61"/>
	<line class="st2" x1="13.6" y1="63.2" x2="19.3" y2="63.2"/>
</g>
<g>
	<line class="st2" x1="13.6" y1="65.3" x2="19.3" y2="65.3"/>
	<line class="st2" x1="13.6" y1="67.6" x2="19.3" y2="67.6"/>
	<line class="st2" x1="13.6" y1="69.7" x2="19.3" y2="69.7"/>
	<line class="st2" x1="13.6" y1="71.9" x2="19.3" y2="71.9"/>
	<line class="st2" x1="13.6" y1="74.1" x2="19.3" y2="74.1"/>
	<line class="st2" x1="13.6" y1="76.3" x2="19.3" y2="76.3"/>
	<line class="st2" x1="13.6" y1="78.4" x2="19.3" y2="78.4"/>
	<line class="st2" x1="13.6" y1="80.6" x2="19.3" y2="80.6"/>
</g>
<g>
	<defs>
		<path id="SVGID_3_" d="M30,28.2h16.3v7.5h0.2c2.3-4.3,7.8-8.8,16.1-8.8c17.2,0,20.4,11.3,20.4,26v30H66V56.3
			c0-6.3-0.1-14.5-8.8-14.5c-8.8,0-10.2,6.9-10.2,14v27H30V28.2z"/>
	</defs>
	<clipPath id="SVGID_4_">
		<use xlink:href="#SVGID_3_"  style="overflow:visible;"/>
	</clipPath>
	<line class="st3" x1="68.9" y1="30.4" x2="81.1" y2="30.4"/>
	<line class="st3" x1="71.3" y1="32.6" x2="82.1" y2="32.6"/>
	<line class="st3" x1="72.9" y1="34.7" x2="82.7" y2="34.7"/>
	<line class="st3" x1="74.5" y1="36.9" x2="83.8" y2="36.9"/>
	<line class="st3" x1="76.1" y1="39.1" x2="85.2" y2="39.1"/>
	<line class="st3" x1="76.8" y1="41.3" x2="84.5" y2="41.3"/>
	<line class="st3" x1="76.8" y1="43.5" x2="83.8" y2="43.5"/>
	<line class="st3" x1="76.9" y1="45.7" x2="82.6" y2="45.7"/>
	<g class="st4">
		<line class="st2" x1="77.3" y1="47.9" x2="83" y2="47.9"/>
		<line class="st2" x1="77.3" y1="50.1" x2="83" y2="50.1"/>
		<line class="st2" x1="77.3" y1="52.2" x2="83" y2="52.2"/>
		<line class="st2" x1="77.3" y1="54.4" x2="83" y2="54.4"/>
		<line class="st2" x1="77.3" y1="56.6" x2="83" y2="56.6"/>
		<line class="st2" x1="77.3" y1="58.8" x2="83" y2="58.8"/>
		<line class="st2" x1="77.3" y1="61" x2="83" y2="61"/>
		<line class="st2" x1="77.3" y1="63.2" x2="83" y2="63.2"/>
	</g>
	<g class="st4">
		<line class="st2" x1="77.3" y1="65.3" x2="83" y2="65.3"/>
		<line class="st2" x1="77.3" y1="67.6" x2="83" y2="67.6"/>
		<line class="st2" x1="77.3" y1="69.7" x2="83" y2="69.7"/>
		<line class="st2" x1="77.3" y1="71.9" x2="83" y2="71.9"/>
		<line class="st2" x1="77.3" y1="74.1" x2="83" y2="74.1"/>
		<line class="st2" x1="77.3" y1="76.3" x2="83" y2="76.3"/>
		<line class="st2" x1="77.3" y1="78.4" x2="83" y2="78.4"/>
		<line class="st2" x1="77.3" y1="80.6" x2="83" y2="80.6"/>
	</g>
</g>
</svg>
